<?xml version="1.0" encoding="utf-8"?>
<svg version="1.1" xmlns="http://www.w3.org/2000/svg" xmlns:xlink="http://www.w3.org/1999/xlink" x="0px" y="0px"
	 viewBox="0 0 256 256" style="enable-background:new 0 0 256 256;" xml:space="preserve">
<style type="text/css">
	.st0{fill:none;stroke:#FFFFFF;stroke-width:12;stroke-miterlimit:10;}
	.st1{fill:#6666CC;}
	.st2{fill:#FFFFFF;}
	.st3{opacity:0.4;}
</style>
<path class="st0" d="M308.3,392.4"/>
<g>
	<rect class="st1" width="256" height="256"/>
	<g>
		<g>
			<circle class="st2" cx="123" cy="73.5" r="27.5"/>
			<path class="st2" d="M157.1,139.4c-0.8,3.6-0.3,7.1,1.3,10.1h-1.1c-6,0-11.3,2.5-15.1,6.5c-3.5,3.7-5.6,8.7-5.6,14.1v15.9H72.9
				v-29.7c0-25.5,20.7-46.2,46.2-46.2h7.8c14.4,0,27.3,6.6,35.8,17C160.1,130.8,158.1,134.9,157.1,139.4z"/>
			<path class="st2" d="M172.1,147.3c-0.3,0.1-0.5,0.1-0.8,0.1c-0.3,0-0.7,0-1.1-0.1c-2.5-0.6-4-3.1-3.5-5.6c0.4-1.8,1-3.5,1.8-5
				C170.2,140,171.4,143.6,172.1,147.3z"/>
		</g>
		<g class="st3">
			<circle class="st2" cx="173" cy="43.5" r="27.5"/>
			<path class="st2" d="M176.9,80.3h-7.8c-25.5,0-46.2,20.7-46.2,46.2v29.7h19.3c3.8-4,9.1-6.5,15.1-6.5h1.1
				c-1.6-3-2.1-6.6-1.3-10.1c1.1-4.5,3-8.6,5.6-12.2c6.2-8.5,16.1-13.8,27.2-13.8c16.8,0,30.8,12.4,33.2,28.5v-15.5
				C223.1,100.9,202.4,80.3,176.9,80.3z"/>
		</g>
		<g class="st3">
			<circle class="st2" cx="73" cy="103.5" r="27.5"/>
			<path class="st2" d="M123.1,216.1H22.9v-29.7c0-25.5,20.7-46.2,46.2-46.2h7.8c25.5,0,46.2,20.7,46.2,46.2V216.1z"/>
		</g>
		<g>
			<circle class="st2" cx="189.8" cy="198" r="12.3"/>
			<path class="st2" d="M222.4,159.6h-8.9v-12.5c0-13-10.6-23.6-23.6-23.6c-11,0-20.5,7.5-23,18.2c-0.6,2.5,1,5,3.5,5.6
				c2.5,0.6,5-1,5.6-3.5c1.5-6.5,7.3-11.1,14-11.1c7.9,0,14.3,6.4,14.3,14.3v12.5h-46.9c-5.9,0-10.7,4.8-10.7,10.7v55.5
				c0,5.9,4.8,10.7,10.7,10.7h65.1c5.9,0,10.7-4.8,10.7-10.7v-55.5C233.1,164.4,228.3,159.6,222.4,159.6z M223.8,225.7
				c0,0.8-0.6,1.4-1.4,1.4h-65.1c-0.8,0-1.4-0.6-1.4-1.4v-55.5c0-0.8,0.6-1.4,1.4-1.4h65.1c0.8,0,1.4,0.6,1.4,1.4V225.7z"/>
		</g>
	</g>
</g>
</svg>
